<?xml version="1.0" encoding="UTF-8"?>
<svg id="Calque_2" data-name="Calque 2" xmlns="http://www.w3.org/2000/svg" viewBox="0 0 142.84 142.36">
  <defs>
    <style>
      .cls-1 {
        fill: #fff;
        stroke: #1d1d1b;
        stroke-miterlimit: 10;
        stroke-width: .5px;
      }

      .cls-2 {
        fill: #358fce;
      }

      .cls-2, .cls-3, .cls-4 {
        stroke-width: 0px;
      }

      .cls-3 {
        fill: #feca16;
      }

      .cls-4 {
        fill: #b03418;
      }
    </style>
  </defs>
  <g id="Calque_2-2" data-name="Calque 2">
    <path class="cls-1" d="M2,138.24c-.53-.31-1.04-.64-1.55-1,.29-.41.58-.81.89-1.2.18.74.41,1.47.66,2.2Z"/>
    <path class="cls-4" d="M39.92,130.25c-5.51,7.89-14.31,12.11-23.25,12.11-3.42,0-6.87-.62-10.16-1.89-1.54-.59-3.06-1.33-4.51-2.23-.25-.73-.48-1.46-.66-2.2-3.22-12.44,2.41-25.91,14.29-32.15,2.2,4.2,3.25,8.71,3.25,13.14,0,3-.48,5.97-1.4,8.79,7.5-1.68,15.65-.32,22.44,4.43Z"/>
    <path class="cls-4" d="M130.22,102.68c7.89,5.51,12.11,14.31,12.11,23.25,0,3.42-.62,6.87-1.89,10.16-.59,1.54-1.33,3.06-2.23,4.51-.73.25-1.46.48-2.2.66-12.44,3.22-25.91-2.41-32.15-14.29,4.2-2.2,8.71-3.25,13.14-3.25,3,0,5.97.48,8.79,1.4-1.68-7.5-.32-15.65,4.43-22.44Z"/>
    <path class="cls-4" d="M12.11,39.47C4.22,33.96,0,25.17,0,16.22c0-3.42.62-6.87,1.89-10.16.59-1.54,1.33-3.06,2.23-4.51.73-.25,1.46-.48,2.2-.66,12.44-3.22,25.91,2.41,32.15,14.29-4.2,2.2-8.71,3.25-13.14,3.25-3,0-5.97-.48-8.79-1.4,1.68,7.5.32,15.65-4.43,22.44Z"/>
    <path class="cls-4" d="M103.36,12.11c5.51-7.89,14.31-12.11,23.25-12.11,3.42,0,6.87.62,10.16,1.89,1.54.59,3.06,1.33,4.51,2.23.25.73.48,1.46.66,2.2,3.22,12.44-2.41,25.91-14.29,32.15-2.2-4.2-3.25-8.71-3.25-13.14,0-3,.48-5.97,1.4-8.79-7.5,1.68-15.65.32-22.44-4.43Z"/>
    <ellipse class="cls-3" cx="31.8" cy="111.39" rx="9.92" ry="5.67" transform="translate(-69.45 55.11) rotate(-45)"/>
    <ellipse class="cls-3" cx="112.13" cy="29.42" rx="9.92" ry="5.67" transform="translate(12.04 87.91) rotate(-45)"/>
    <ellipse class="cls-3" cx="112.13" cy="111.39" rx="5.67" ry="9.92" transform="translate(-45.92 111.92) rotate(-45)"/>
    <ellipse class="cls-3" cx="31.8" cy="31.06" rx="5.67" ry="9.92" transform="translate(-12.65 31.58) rotate(-45)"/>
    <path class="cls-2" d="M28.79,48.82s20.16-.94,21.77-20.07l6.58,28.35-28.35-8.27Z"/>
    <path class="cls-2" d="M114.43,48.83s-20.16-.94-21.77-20.07l-6.58,28.35,28.35-8.27Z"/>
    <path class="cls-2" d="M113.83,93.73s-20.16.94-21.77,20.07l-6.58-28.35,28.35,8.27Z"/>
    <path class="cls-2" d="M28.79,93.73s20.16.94,21.77,20.07l6.58-28.35-28.35,8.27Z"/>
    <circle class="cls-3" cx="71.31" cy="71.28" r="7.09"/>
    <path class="cls-4" d="M82.3,71.08s22.74,13.75,59.67,0c0,0-35.83-12.89-59.67,0Z"/>
    <path class="cls-3" d="M103.79,58.99s13.52,1.28,32.61-8.16c0,0-20.61.79-32.61,8.16Z"/>
    <path class="cls-4" d="M60.12,71.08s-22.74,13.75-59.67,0c0,0,35.83-12.89,59.67,0Z"/>
    <path class="cls-4" d="M71.34,82.21s-13.75,22.74,0,59.67c0,0,12.89-35.83,0-59.67Z"/>
    <path class="cls-4" d="M71.34,60.34s-13.75-22.74,0-59.67c0,0,12.89,35.83,0,59.67Z"/>
    <path class="cls-3" d="M102.71,82.38s13.52-1.28,32.61,8.16c0,0-20.61-.79-32.61-8.16Z"/>
    <path class="cls-3" d="M41.88,58.99s-13.52,1.28-32.61-8.16c0,0,20.61.79,32.61,8.16Z"/>
    <path class="cls-3" d="M42.97,82.38s-13.52-1.28-32.61,8.16c0,0,20.61-.79,32.61-8.16Z"/>
    <path class="cls-3" d="M59.92,42.23s1.28-13.52-8.16-32.61c0,0,.79,20.61,8.16,32.61Z"/>
    <path class="cls-3" d="M83.31,43.32s-1.28-13.52,8.16-32.61c0,0-.79,20.61-8.16,32.61Z"/>
    <path class="cls-3" d="M59.92,100.32s1.28,13.52-8.16,32.61c0,0,.79-20.61,8.16-32.61Z"/>
    <path class="cls-3" d="M83.31,99.23s-1.28,13.52,8.16,32.61c0,0-.79-20.61-8.16-32.61Z"/>
  </g>
</svg>